<svg xmlns="http://www.w3.org/2000/svg" width="1200" height="900" viewBox="0 0 1200 900" role="img" aria-label="Good night and sweet dreams">
  <defs>
    <radialGradient id="sky" cx="50%" cy="20%" r="85%">
      <stop offset="0%" stop-color="#425a8f"/>
      <stop offset="100%" stop-color="#121a35"/>
    </radialGradient>
    <linearGradient id="hill" x1="0" x2="1" y1="0" y2="1">
      <stop offset="0%" stop-color="#35466d"/>
      <stop offset="100%" stop-color="#1d2847"/>
    </linearGradient>
  </defs>
  <rect width="1200" height="900" fill="url(#sky)"/>
  <circle cx="910" cy="165" r="82" fill="#f6e7a8"/>
  <circle cx="880" cy="138" r="82" fill="#425a8f" opacity="0.82"/>
  <circle cx="184" cy="170" r="4" fill="#fff7d5" opacity="0.85"/>
  <circle cx="312" cy="102" r="3" fill="#fff7d5" opacity="0.75"/>
  <circle cx="498" cy="202" r="4" fill="#fff7d5" opacity="0.75"/>
  <circle cx="665" cy="126" r="3" fill="#fff7d5" opacity="0.7"/>
  <circle cx="1030" cy="272" r="4" fill="#fff7d5" opacity="0.75"/>
  <path d="M0 646 C176 568 326 632 480 584 C650 530 804 580 1200 486 L1200 900 L0 900 Z" fill="url(#hill)"/>
  <path d="M214 674 C306 620 430 628 510 686 C620 620 754 620 866 686 C940 646 1034 650 1114 700 L1114 900 L214 900 Z" fill="#1a243f" opacity="0.82"/>
  <rect x="328" y="610" width="544" height="120" rx="60" fill="#f4e6c7" opacity="0.96"/>
  <path d="M390 668 C468 718 592 730 724 690" fill="none" stroke="#d8b87a" stroke-width="20" stroke-linecap="round" opacity="0.72"/>
  <text x="600" y="395" text-anchor="middle" fill="#fff6dc" font-family="Georgia, 'Times New Roman', serif" font-size="72">Good night</text>
  <text x="600" y="482" text-anchor="middle" fill="#f5dfab" font-family="Georgia, 'Times New Roman', serif" font-size="58">and sweet dreams</text>
</svg>
